<svg width="800" height="600" viewBox="0 0 800 600" xmlns="http://www.w3.org/2000/svg">
  <!-- Background stars -->
  <g id="stars" fill="#B3C5E6" opacity="0.5">
    <circle cx="150" cy="100" r="2" />
    <circle cx="350" cy="150" r="1.5" />
    <circle cx="550" cy="200" r="2" />
    <circle cx="650" cy="350" r="1.5" />
    <circle cx="250" cy="450" r="2" />
    <circle cx="450" cy="500" r="1.5" />
  </g>

  <!-- Decorative shapes -->
  <g id="shapes" opacity="0.8">
    <circle cx="200" cy="250" r="40" fill="none" stroke="#4A90E2" stroke-width="2"/>
    <rect x="500" y="300" width="60" height="60" rx="15" fill="#5C6BC0" opacity="0.6"/>
    <polygon points="300,200 330,250 270,250" fill="#3949AB" opacity="0.7"/>
  </g>

  <!-- Connecting lines -->
  <g id="lines" stroke="#7986CB" stroke-width="1.5" opacity="0.4">
    <path d="M200,250 C300,200 400,300 500,250" fill="none"/>
    <path d="M300,350 C400,300 450,400 550,350" fill="none"/>
  </g>

  <!-- Floating device -->
  <g id="device" transform="translate(550,200)">
    <rect x="0" y="0" width="120" height="80" rx="10" fill="#1A237E" opacity="0.9"/>
    <rect x="10" y="10" width="100" height="60" rx="5" fill="#C5CAE9"/>
    <circle cx="60" cy="40" r="15" fill="#3F51B5"/>
  </g>

  <!-- Astronaut -->
  <g id="astronaut" transform="translate(400,300)">
    <!-- Helmet -->
    <circle cx="0" cy="0" r="40" fill="#E8EAF6"/>
    <circle cx="0" cy="0" r="35" fill="#C5CAE9"/>
    <!-- Visor -->
    <path d="M-20,-10 Q0,-25 20,-10" fill="#5C6BC0" opacity="0.8"/>
    <!-- Suit -->
    <path d="M-30,30 Q0,60 30,30 Q40,0 30,-20 Q0,-40 -30,-20 Q-40,0 -30,30" 
          fill="#3F51B5"/>
    <!-- Backpack -->
    <rect x="-45" y="-20" width="25" height="40" rx="5" fill="#283593"/>
  </g>
</svg>
